<mxfile host="Electron" modified="2023-06-07T14:00:59.347Z" agent="Mozilla/5.0 (X11; Linux x86_64) AppleWebKit/537.36 (KHTML, like Gecko) draw.io/21.2.8 Chrome/106.0.5249.199 Electron/21.4.4 Safari/537.36" etag="if2jcpslMJB8OaMwH2jb" version="21.2.8" type="device">
  <diagram id="H3Rc5xidPyoBvv4M6Mv6" name="Pagina-1">
    <mxGraphModel dx="2234" dy="1257" grid="1" gridSize="10" guides="1" tooltips="1" connect="1" arrows="1" fold="1" page="0" pageScale="1" pageWidth="827" pageHeight="1169" background="none" math="0" shadow="0">
      <root>
        <mxCell id="0" />
        <mxCell id="1" parent="0" />
        <mxCell id="node12" value="&lt;p style=&quot;margin:0px;margin-top:4px;text-align:center;&quot;&gt;&lt;b&gt;CSVArticle&lt;/b&gt;&lt;/p&gt;&lt;hr size=&quot;1&quot;&gt;" style="verticalAlign=top;align=left;overflow=fill;fontSize=14;fontFamily=Helvetica;html=1;rounded=0;shadow=0;comic=0;labelBackgroundColor=none;strokeWidth=1;" parent="1" vertex="1">
          <mxGeometry x="78" y="310.5" width="112" height="31" as="geometry" />
        </mxCell>
        <mxCell id="node3" value="&lt;p style=&quot;margin:0px;margin-top:4px;text-align:center;&quot;&gt;&lt;b&gt;APIParser&lt;/b&gt;&lt;/p&gt;&lt;hr size=&quot;1&quot;/&gt;" style="verticalAlign=top;align=left;overflow=fill;fontSize=14;fontFamily=Helvetica;html=1;rounded=0;shadow=0;comic=0;labelBackgroundColor=none;strokeWidth=1;" parent="1" vertex="1">
          <mxGeometry x="-440" y="170" width="112" height="31" as="geometry" />
        </mxCell>
        <mxCell id="node5" value="&lt;p style=&quot;margin:0px;margin-top:4px;text-align:center;&quot;&gt;&lt;b&gt;APISource&lt;/b&gt;&lt;/p&gt;&lt;hr size=&quot;1&quot;/&gt;" style="verticalAlign=top;align=left;overflow=fill;fontSize=14;fontFamily=Helvetica;html=1;rounded=0;shadow=0;comic=0;labelBackgroundColor=none;strokeWidth=1;" parent="1" vertex="1">
          <mxGeometry x="-97" y="64" width="116" height="31" as="geometry" />
        </mxCell>
        <mxCell id="node15" value="&lt;p style=&quot;margin:0px;margin-top:4px;text-align:center;&quot;&gt;&lt;b&gt;Article&lt;/b&gt;&lt;/p&gt;&lt;hr size=&quot;1&quot;/&gt;" style="verticalAlign=top;align=left;overflow=fill;fontSize=14;fontFamily=Helvetica;html=1;rounded=0;shadow=0;comic=0;labelBackgroundColor=none;strokeWidth=1;" parent="1" vertex="1">
          <mxGeometry x="21" y="423.5" width="91" height="31" as="geometry" />
        </mxCell>
        <mxCell id="node4" value="&lt;p style=&quot;margin:0px;margin-top:4px;text-align:center;&quot;&gt;&lt;i&gt;&amp;lt;&amp;lt;interface&amp;gt;&amp;gt;&lt;/i&gt;&lt;br/&gt;&lt;b&gt;ArticleSource&lt;/b&gt;&lt;/p&gt;&lt;hr size=&quot;1&quot;/&gt;" style="verticalAlign=top;align=left;overflow=fill;fontSize=14;fontFamily=Helvetica;html=1;rounded=0;shadow=0;comic=0;labelBackgroundColor=none;strokeWidth=1;" parent="1" vertex="1">
          <mxGeometry x="-37" y="-66" width="136" height="36" as="geometry" />
        </mxCell>
        <mxCell id="node9" value="&lt;p style=&quot;margin:0px;margin-top:4px;text-align:center;&quot;&gt;&lt;b&gt;APIArticle&lt;/b&gt;&lt;/p&gt;&lt;hr size=&quot;1&quot;&gt;" style="verticalAlign=top;align=left;overflow=fill;fontSize=14;fontFamily=Helvetica;html=1;rounded=0;shadow=0;comic=0;labelBackgroundColor=none;strokeWidth=1;" parent="1" vertex="1">
          <mxGeometry x="-60" y="310.5" width="118" height="31" as="geometry" />
        </mxCell>
        <mxCell id="node10" value="&lt;p style=&quot;margin:0px;margin-top:4px;text-align:center;&quot;&gt;&lt;b&gt;CSVParser&lt;/b&gt;&lt;/p&gt;&lt;hr size=&quot;1&quot;/&gt;" style="verticalAlign=top;align=left;overflow=fill;fontSize=14;fontFamily=Helvetica;html=1;rounded=0;shadow=0;comic=0;labelBackgroundColor=none;strokeWidth=1;" parent="1" vertex="1">
          <mxGeometry x="302.5" y="64" width="117" height="31" as="geometry" />
        </mxCell>
        <mxCell id="node17" value="&lt;p style=&quot;margin:0px;margin-top:4px;text-align:center;&quot;&gt;&lt;b&gt;CSVSource&lt;/b&gt;&lt;/p&gt;&lt;hr size=&quot;1&quot;/&gt;" style="verticalAlign=top;align=left;overflow=fill;fontSize=14;fontFamily=Helvetica;html=1;rounded=0;shadow=0;comic=0;labelBackgroundColor=none;strokeWidth=1;" parent="1" vertex="1">
          <mxGeometry x="39" y="64" width="122" height="31" as="geometry" />
        </mxCell>
        <mxCell id="node16" value="&lt;p style=&quot;margin:0px;margin-top:4px;text-align:center;&quot;&gt;&lt;b&gt;Deserializer&lt;/b&gt;&lt;/p&gt;&lt;hr size=&quot;1&quot;/&gt;" style="verticalAlign=top;align=left;overflow=fill;fontSize=14;fontFamily=Helvetica;html=1;rounded=0;shadow=0;comic=0;labelBackgroundColor=none;strokeWidth=1;" parent="1" vertex="1">
          <mxGeometry x="-162" y="530" width="125" height="31" as="geometry" />
        </mxCell>
        <mxCell id="node7" value="&lt;p style=&quot;margin:0px;margin-top:4px;text-align:center;&quot;&gt;&lt;b&gt;HTMLParser&lt;/b&gt;&lt;/p&gt;&lt;hr size=&quot;1&quot;/&gt;" style="verticalAlign=top;align=left;overflow=fill;fontSize=14;fontFamily=Helvetica;html=1;rounded=0;shadow=0;comic=0;labelBackgroundColor=none;strokeWidth=1;" parent="1" vertex="1">
          <mxGeometry x="-158" y="170" width="129" height="31" as="geometry" />
        </mxCell>
        <mxCell id="node8" value="&lt;p style=&quot;margin:0px;margin-top:4px;text-align:center;&quot;&gt;&lt;b&gt;HTTPClient&lt;/b&gt;&lt;/p&gt;&lt;hr size=&quot;1&quot;/&gt;" style="verticalAlign=top;align=left;overflow=fill;fontSize=14;fontFamily=Helvetica;html=1;rounded=0;shadow=0;comic=0;labelBackgroundColor=none;strokeWidth=1;" parent="1" vertex="1">
          <mxGeometry x="-280" y="-30" width="122" height="31" as="geometry" />
        </mxCell>
        <mxCell id="node11" value="&lt;p style=&quot;margin:0px;margin-top:4px;text-align:center;&quot;&gt;&lt;b&gt;Serializer&lt;/b&gt;&lt;/p&gt;&lt;hr size=&quot;1&quot;/&gt;" style="verticalAlign=top;align=left;overflow=fill;fontSize=14;fontFamily=Helvetica;html=1;rounded=0;shadow=0;comic=0;labelBackgroundColor=none;strokeWidth=1;" parent="1" vertex="1">
          <mxGeometry x="-280" y="423.5" width="109" height="31" as="geometry" />
        </mxCell>
        <mxCell id="node6" value="&lt;p style=&quot;margin:0px;margin-top:4px;text-align:center;&quot;&gt;&lt;b&gt;Tokenizer&lt;/b&gt;&lt;/p&gt;&lt;hr size=&quot;1&quot;/&gt;" style="verticalAlign=top;align=left;overflow=fill;fontSize=14;fontFamily=Helvetica;html=1;rounded=0;shadow=0;comic=0;labelBackgroundColor=none;strokeWidth=1;" parent="1" vertex="1">
          <mxGeometry x="296.5" y="590" width="114" height="31" as="geometry" />
        </mxCell>
        <mxCell id="node13" value="&lt;p style=&quot;margin:0px;margin-top:4px;text-align:center;&quot;&gt;&lt;i&gt;&amp;lt;&amp;lt;interface&amp;gt;&amp;gt;&lt;/i&gt;&lt;br/&gt;&lt;b&gt;TokensStorage&lt;/b&gt;&lt;/p&gt;&lt;hr size=&quot;1&quot;/&gt;" style="verticalAlign=top;align=left;overflow=fill;fontSize=14;fontFamily=Helvetica;html=1;rounded=0;shadow=0;comic=0;labelBackgroundColor=none;strokeWidth=1;" parent="1" vertex="1">
          <mxGeometry x="280" y="316.5" width="147" height="36" as="geometry" />
        </mxCell>
        <mxCell id="node14" value="&lt;p style=&quot;margin:0px;margin-top:4px;text-align:center;&quot;&gt;&lt;b&gt;TreeStorage&lt;/b&gt;&lt;/p&gt;&lt;hr size=&quot;1&quot;/&gt;" style="verticalAlign=top;align=left;overflow=fill;fontSize=14;fontFamily=Helvetica;html=1;rounded=0;shadow=0;comic=0;labelBackgroundColor=none;strokeWidth=1;" parent="1" vertex="1">
          <mxGeometry x="288.5" y="423.5" width="130" height="31" as="geometry" />
        </mxCell>
        <mxCell id="node0" value="&lt;p style=&quot;margin:0px;margin-top:4px;text-align:center;&quot;&gt;&lt;b&gt;URLSetter&lt;/b&gt;&lt;/p&gt;&lt;hr size=&quot;1&quot;/&gt;" style="verticalAlign=top;align=left;overflow=fill;fontSize=14;fontFamily=Helvetica;html=1;rounded=0;shadow=0;comic=0;labelBackgroundColor=none;strokeWidth=1;" parent="1" vertex="1">
          <mxGeometry x="-370" y="64" width="115" height="31" as="geometry" />
        </mxCell>
        <mxCell id="edge4" value="" style="html=1;rounded=1;edgeStyle=orthogonalEdgeStyle;dashed=0;startArrow=none;endArrow=blockThin;endSize=12;strokeColor=#000082;exitX=0.5;exitY=1;exitDx=0;exitDy=0;endFill=0;" parent="1" source="node12" edge="1">
          <mxGeometry width="50" height="50" relative="1" as="geometry">
            <Array as="points">
              <mxPoint x="134" y="383.5" />
              <mxPoint x="67" y="383.5" />
            </Array>
            <mxPoint x="67" y="423.5" as="targetPoint" />
          </mxGeometry>
        </mxCell>
        <mxCell id="edge0" value="" style="html=1;rounded=1;edgeStyle=orthogonalEdgeStyle;dashed=1;startArrow=none;endArrow=blockThin;endSize=12;strokeColor=#008200;exitX=0.500;exitY=0.002;exitDx=0;exitDy=0;endFill=0;" parent="1" source="node5" edge="1">
          <mxGeometry width="50" height="50" relative="1" as="geometry">
            <Array as="points">
              <mxPoint x="-39" y="20" />
              <mxPoint x="31" y="20" />
              <mxPoint x="31" y="-10" />
            </Array>
            <mxPoint x="31" y="-30" as="targetPoint" />
          </mxGeometry>
        </mxCell>
        <mxCell id="edge1" value="" style="html=1;rounded=1;edgeStyle=orthogonalEdgeStyle;dashed=0;startArrow=none;endArrow=blockThin;endSize=12;strokeColor=#000082;exitX=0.5;exitY=1;exitDx=0;exitDy=0;entryX=0.5;entryY=0;entryDx=0;entryDy=0;endFill=0;" parent="1" source="node9" target="node15" edge="1">
          <mxGeometry width="50" height="50" relative="1" as="geometry">
            <Array as="points">
              <mxPoint x="-1" y="383.5" />
              <mxPoint x="67" y="383.5" />
            </Array>
          </mxGeometry>
        </mxCell>
        <mxCell id="edge2" value="" style="html=1;rounded=1;edgeStyle=orthogonalEdgeStyle;dashed=1;startArrow=none;endArrow=blockThin;endSize=12;strokeColor=#008200;exitX=0.500;exitY=0.002;exitDx=0;exitDy=0;endFill=0;" parent="1" source="node17" edge="1">
          <mxGeometry width="50" height="50" relative="1" as="geometry">
            <Array as="points">
              <mxPoint x="100" y="20" />
              <mxPoint x="31" y="20" />
              <mxPoint x="31" />
            </Array>
            <mxPoint x="31" y="-30" as="targetPoint" />
          </mxGeometry>
        </mxCell>
        <mxCell id="edge3" value="" style="html=1;rounded=1;edgeStyle=orthogonalEdgeStyle;dashed=1;startArrow=none;endArrow=blockThin;endSize=12;strokeColor=#008200;exitX=0.500;exitY=0.002;exitDx=0;exitDy=0;entryX=0.500;entryY=1.002;entryDx=0;entryDy=0;endFill=0;" parent="1" source="node14" target="node13" edge="1">
          <mxGeometry width="50" height="50" relative="1" as="geometry">
            <Array as="points" />
          </mxGeometry>
        </mxCell>
        <mxCell id="RuJHTTD1aHRAg2Q4-gnr-3" value="is an" style="text;html=1;strokeColor=none;fillColor=none;align=center;verticalAlign=middle;whiteSpace=wrap;rounded=0;" parent="1" vertex="1">
          <mxGeometry x="7" y="364.5" width="30" height="20" as="geometry" />
        </mxCell>
        <mxCell id="RuJHTTD1aHRAg2Q4-gnr-5" value="is an" style="text;html=1;strokeColor=none;fillColor=none;align=center;verticalAlign=middle;whiteSpace=wrap;rounded=0;" parent="1" vertex="1">
          <mxGeometry x="93" y="364.5" width="30" height="20" as="geometry" />
        </mxCell>
        <mxCell id="RuJHTTD1aHRAg2Q4-gnr-7" value="implements" style="text;html=1;strokeColor=none;fillColor=none;align=center;verticalAlign=middle;whiteSpace=wrap;rounded=0;" parent="1" vertex="1">
          <mxGeometry x="-36" y="1" width="60" height="20" as="geometry" />
        </mxCell>
        <mxCell id="RuJHTTD1aHRAg2Q4-gnr-8" value="implements" style="text;html=1;strokeColor=none;fillColor=none;align=center;verticalAlign=middle;whiteSpace=wrap;rounded=0;" parent="1" vertex="1">
          <mxGeometry x="39" width="60" height="20" as="geometry" />
        </mxCell>
        <mxCell id="RuJHTTD1aHRAg2Q4-gnr-9" value="implements" style="text;html=1;strokeColor=none;fillColor=none;align=center;verticalAlign=middle;whiteSpace=wrap;rounded=0;" parent="1" vertex="1">
          <mxGeometry x="358.5" y="380.5" width="60" height="20" as="geometry" />
        </mxCell>
        <mxCell id="RuJHTTD1aHRAg2Q4-gnr-11" value="" style="endArrow=none;html=1;edgeStyle=orthogonalEdgeStyle;rounded=0;exitX=0.5;exitY=1;exitDx=0;exitDy=0;entryX=0.25;entryY=0;entryDx=0;entryDy=0;" parent="1" source="node8" target="node5" edge="1">
          <mxGeometry relative="1" as="geometry">
            <mxPoint x="-210" y="100" as="sourcePoint" />
            <mxPoint x="-50" y="100" as="targetPoint" />
          </mxGeometry>
        </mxCell>
        <mxCell id="RuJHTTD1aHRAg2Q4-gnr-12" value="1" style="edgeLabel;resizable=0;html=1;align=left;verticalAlign=bottom;" parent="RuJHTTD1aHRAg2Q4-gnr-11" connectable="0" vertex="1">
          <mxGeometry x="-1" relative="1" as="geometry">
            <mxPoint x="-21" y="19" as="offset" />
          </mxGeometry>
        </mxCell>
        <mxCell id="RuJHTTD1aHRAg2Q4-gnr-13" value="1" style="edgeLabel;resizable=0;html=1;align=right;verticalAlign=bottom;" parent="RuJHTTD1aHRAg2Q4-gnr-11" connectable="0" vertex="1">
          <mxGeometry x="1" relative="1" as="geometry">
            <mxPoint x="-2" y="-4" as="offset" />
          </mxGeometry>
        </mxCell>
        <mxCell id="RuJHTTD1aHRAg2Q4-gnr-16" value="gets-pages-from" style="text;strokeColor=none;fillColor=none;align=left;verticalAlign=top;spacingLeft=4;spacingRight=4;overflow=hidden;rotatable=0;points=[[0,0.5],[1,0.5]];portConstraint=eastwest;whiteSpace=wrap;html=1;" parent="1" vertex="1">
          <mxGeometry x="-191" y="10" width="111" height="26" as="geometry" />
        </mxCell>
        <mxCell id="RuJHTTD1aHRAg2Q4-gnr-21" value="" style="endArrow=none;html=1;edgeStyle=orthogonalEdgeStyle;rounded=0;entryX=0;entryY=0.5;entryDx=0;entryDy=0;exitX=1;exitY=0.5;exitDx=0;exitDy=0;" parent="1" source="node0" target="node5" edge="1">
          <mxGeometry relative="1" as="geometry">
            <mxPoint x="-240" y="80" as="sourcePoint" />
            <mxPoint x="-100" y="79" as="targetPoint" />
          </mxGeometry>
        </mxCell>
        <mxCell id="RuJHTTD1aHRAg2Q4-gnr-22" value="1" style="edgeLabel;resizable=0;html=1;align=left;verticalAlign=bottom;" parent="RuJHTTD1aHRAg2Q4-gnr-21" connectable="0" vertex="1">
          <mxGeometry x="-1" relative="1" as="geometry">
            <mxPoint x="5" as="offset" />
          </mxGeometry>
        </mxCell>
        <mxCell id="RuJHTTD1aHRAg2Q4-gnr-23" value="1" style="edgeLabel;resizable=0;html=1;align=right;verticalAlign=bottom;" parent="RuJHTTD1aHRAg2Q4-gnr-21" connectable="0" vertex="1">
          <mxGeometry x="1" relative="1" as="geometry">
            <mxPoint x="-3" as="offset" />
          </mxGeometry>
        </mxCell>
        <mxCell id="RuJHTTD1aHRAg2Q4-gnr-24" value="gets-URL-from" style="text;strokeColor=none;fillColor=none;align=left;verticalAlign=top;spacingLeft=4;spacingRight=4;overflow=hidden;rotatable=0;points=[[0,0.5],[1,0.5]];portConstraint=eastwest;whiteSpace=wrap;html=1;" parent="1" vertex="1">
          <mxGeometry x="-228" y="60" width="100" height="26" as="geometry" />
        </mxCell>
        <mxCell id="RuJHTTD1aHRAg2Q4-gnr-25" value="" style="endArrow=none;html=1;edgeStyle=orthogonalEdgeStyle;rounded=0;exitX=0.5;exitY=0;exitDx=0;exitDy=0;entryX=0.25;entryY=1;entryDx=0;entryDy=0;" parent="1" source="node3" target="node5" edge="1">
          <mxGeometry relative="1" as="geometry">
            <mxPoint x="-250" y="140" as="sourcePoint" />
            <mxPoint x="-90" y="140" as="targetPoint" />
          </mxGeometry>
        </mxCell>
        <mxCell id="RuJHTTD1aHRAg2Q4-gnr-26" value="1" style="edgeLabel;resizable=0;html=1;align=left;verticalAlign=bottom;" parent="RuJHTTD1aHRAg2Q4-gnr-25" connectable="0" vertex="1">
          <mxGeometry x="-1" relative="1" as="geometry">
            <mxPoint x="9" as="offset" />
          </mxGeometry>
        </mxCell>
        <mxCell id="RuJHTTD1aHRAg2Q4-gnr-27" value="1" style="edgeLabel;resizable=0;html=1;align=right;verticalAlign=bottom;" parent="RuJHTTD1aHRAg2Q4-gnr-25" connectable="0" vertex="1">
          <mxGeometry x="1" relative="1" as="geometry">
            <mxPoint x="-1" y="25" as="offset" />
          </mxGeometry>
        </mxCell>
        <mxCell id="RuJHTTD1aHRAg2Q4-gnr-28" value="parses-pages-with" style="text;strokeColor=none;fillColor=none;align=left;verticalAlign=top;spacingLeft=4;spacingRight=4;overflow=hidden;rotatable=0;points=[[0,0.5],[1,0.5]];portConstraint=eastwest;whiteSpace=wrap;html=1;" parent="1" vertex="1">
          <mxGeometry x="-260" y="110" width="120" height="30" as="geometry" />
        </mxCell>
        <mxCell id="RuJHTTD1aHRAg2Q4-gnr-32" value="" style="endArrow=none;html=1;edgeStyle=orthogonalEdgeStyle;rounded=0;exitX=0;exitY=0.5;exitDx=0;exitDy=0;entryX=1;entryY=0.5;entryDx=0;entryDy=0;" parent="1" source="node7" target="node3" edge="1">
          <mxGeometry relative="1" as="geometry">
            <mxPoint x="-90" y="160" as="sourcePoint" />
            <mxPoint x="70" y="160" as="targetPoint" />
          </mxGeometry>
        </mxCell>
        <mxCell id="RuJHTTD1aHRAg2Q4-gnr-33" value="1" style="edgeLabel;resizable=0;html=1;align=left;verticalAlign=bottom;" parent="RuJHTTD1aHRAg2Q4-gnr-32" connectable="0" vertex="1">
          <mxGeometry x="-1" relative="1" as="geometry">
            <mxPoint x="-12" y="25" as="offset" />
          </mxGeometry>
        </mxCell>
        <mxCell id="RuJHTTD1aHRAg2Q4-gnr-34" value="1" style="edgeLabel;resizable=0;html=1;align=right;verticalAlign=bottom;" parent="RuJHTTD1aHRAg2Q4-gnr-32" connectable="0" vertex="1">
          <mxGeometry x="1" relative="1" as="geometry">
            <mxPoint x="10" y="25" as="offset" />
          </mxGeometry>
        </mxCell>
        <mxCell id="RuJHTTD1aHRAg2Q4-gnr-35" value="parses-articles-with" style="text;strokeColor=none;fillColor=none;align=left;verticalAlign=top;spacingLeft=4;spacingRight=4;overflow=hidden;rotatable=0;points=[[0,0.5],[1,0.5]];portConstraint=eastwest;whiteSpace=wrap;html=1;" parent="1" vertex="1">
          <mxGeometry x="-310" y="161.5" width="120" height="26" as="geometry" />
        </mxCell>
        <mxCell id="RuJHTTD1aHRAg2Q4-gnr-36" value="" style="endArrow=none;html=1;edgeStyle=orthogonalEdgeStyle;rounded=0;exitX=1;exitY=0.5;exitDx=0;exitDy=0;entryX=0;entryY=0.5;entryDx=0;entryDy=0;" parent="1" source="node17" target="node10" edge="1">
          <mxGeometry relative="1" as="geometry">
            <mxPoint x="161" y="130" as="sourcePoint" />
            <mxPoint x="321" y="130" as="targetPoint" />
          </mxGeometry>
        </mxCell>
        <mxCell id="RuJHTTD1aHRAg2Q4-gnr-37" value="1" style="edgeLabel;resizable=0;html=1;align=left;verticalAlign=bottom;" parent="RuJHTTD1aHRAg2Q4-gnr-36" connectable="0" vertex="1">
          <mxGeometry x="-1" relative="1" as="geometry" />
        </mxCell>
        <mxCell id="RuJHTTD1aHRAg2Q4-gnr-38" value="1" style="edgeLabel;resizable=0;html=1;align=right;verticalAlign=bottom;" parent="RuJHTTD1aHRAg2Q4-gnr-36" connectable="0" vertex="1">
          <mxGeometry x="1" relative="1" as="geometry">
            <mxPoint x="-2" as="offset" />
          </mxGeometry>
        </mxCell>
        <mxCell id="RuJHTTD1aHRAg2Q4-gnr-39" value="parses-file-with" style="text;strokeColor=none;fillColor=none;align=left;verticalAlign=top;spacingLeft=4;spacingRight=4;overflow=hidden;rotatable=0;points=[[0,0.5],[1,0.5]];portConstraint=eastwest;whiteSpace=wrap;html=1;" parent="1" vertex="1">
          <mxGeometry x="190" y="60" width="100" height="26" as="geometry" />
        </mxCell>
        <mxCell id="RuJHTTD1aHRAg2Q4-gnr-47" value="" style="endArrow=none;html=1;edgeStyle=orthogonalEdgeStyle;rounded=0;exitX=0.75;exitY=1;exitDx=0;exitDy=0;entryX=0.25;entryY=0;entryDx=0;entryDy=0;" parent="1" source="node5" target="node9" edge="1">
          <mxGeometry relative="1" as="geometry">
            <mxPoint x="-1.3100000000000023" y="100" as="sourcePoint" />
            <mxPoint x="-1.3100000000000023" y="296" as="targetPoint" />
            <Array as="points">
              <mxPoint x="-10" y="310" />
            </Array>
          </mxGeometry>
        </mxCell>
        <mxCell id="RuJHTTD1aHRAg2Q4-gnr-48" value="&lt;font style=&quot;font-size: 11px;&quot;&gt;1&lt;/font&gt;" style="edgeLabel;resizable=0;html=1;align=left;verticalAlign=bottom;" parent="RuJHTTD1aHRAg2Q4-gnr-47" connectable="0" vertex="1">
          <mxGeometry x="-1" relative="1" as="geometry">
            <mxPoint y="25" as="offset" />
          </mxGeometry>
        </mxCell>
        <mxCell id="RuJHTTD1aHRAg2Q4-gnr-49" value="&lt;font style=&quot;font-size: 11px;&quot;&gt;0..*&lt;/font&gt;" style="edgeLabel;resizable=0;html=1;align=right;verticalAlign=bottom;" parent="RuJHTTD1aHRAg2Q4-gnr-47" connectable="0" vertex="1">
          <mxGeometry x="1" relative="1" as="geometry">
            <mxPoint x="41" as="offset" />
          </mxGeometry>
        </mxCell>
        <mxCell id="RuJHTTD1aHRAg2Q4-gnr-52" value="&lt;span style=&quot;font-weight: normal;&quot;&gt;&lt;font style=&quot;font-size: 12px;&quot;&gt;generates&lt;/font&gt;&lt;/span&gt;" style="text;strokeColor=none;fillColor=none;html=1;fontSize=24;fontStyle=1;verticalAlign=middle;align=center;rotation=90;" parent="1" vertex="1">
          <mxGeometry x="-31" y="180" width="70" height="20" as="geometry" />
        </mxCell>
        <mxCell id="RuJHTTD1aHRAg2Q4-gnr-57" value="" style="endArrow=none;html=1;edgeStyle=orthogonalEdgeStyle;rounded=0;exitX=0.75;exitY=1;exitDx=0;exitDy=0;" parent="1" edge="1">
          <mxGeometry relative="1" as="geometry">
            <mxPoint x="114" y="95" as="sourcePoint" />
            <mxPoint x="114" y="310" as="targetPoint" />
            <Array as="points">
              <mxPoint x="114" y="300" />
            </Array>
          </mxGeometry>
        </mxCell>
        <mxCell id="RuJHTTD1aHRAg2Q4-gnr-58" value="&lt;font style=&quot;font-size: 11px;&quot;&gt;1&lt;/font&gt;" style="edgeLabel;resizable=0;html=1;align=left;verticalAlign=bottom;" parent="RuJHTTD1aHRAg2Q4-gnr-57" connectable="0" vertex="1">
          <mxGeometry x="-1" relative="1" as="geometry">
            <mxPoint y="25" as="offset" />
          </mxGeometry>
        </mxCell>
        <mxCell id="RuJHTTD1aHRAg2Q4-gnr-59" value="&lt;font style=&quot;font-size: 11px;&quot;&gt;0..*&lt;/font&gt;" style="edgeLabel;resizable=0;html=1;align=right;verticalAlign=bottom;" parent="RuJHTTD1aHRAg2Q4-gnr-57" connectable="0" vertex="1">
          <mxGeometry x="1" relative="1" as="geometry">
            <mxPoint x="26" as="offset" />
          </mxGeometry>
        </mxCell>
        <mxCell id="RuJHTTD1aHRAg2Q4-gnr-60" value="&lt;span style=&quot;font-weight: normal;&quot;&gt;&lt;font style=&quot;font-size: 12px;&quot;&gt;generates&lt;/font&gt;&lt;/span&gt;" style="text;strokeColor=none;fillColor=none;html=1;fontSize=24;fontStyle=1;verticalAlign=middle;align=center;rotation=90;" parent="1" vertex="1">
          <mxGeometry x="93" y="180" width="70" height="20" as="geometry" />
        </mxCell>
        <mxCell id="RuJHTTD1aHRAg2Q4-gnr-61" value="" style="endArrow=none;html=1;edgeStyle=orthogonalEdgeStyle;rounded=0;exitX=1;exitY=0.5;exitDx=0;exitDy=0;entryX=0;entryY=0.5;entryDx=0;entryDy=0;" parent="1" source="node11" target="node15" edge="1">
          <mxGeometry relative="1" as="geometry">
            <mxPoint x="-30" y="390" as="sourcePoint" />
            <mxPoint x="130" y="390" as="targetPoint" />
          </mxGeometry>
        </mxCell>
        <mxCell id="RuJHTTD1aHRAg2Q4-gnr-62" value="1" style="edgeLabel;resizable=0;html=1;align=left;verticalAlign=bottom;" parent="RuJHTTD1aHRAg2Q4-gnr-61" connectable="0" vertex="1">
          <mxGeometry x="-1" relative="1" as="geometry" />
        </mxCell>
        <mxCell id="RuJHTTD1aHRAg2Q4-gnr-63" value="1..*" style="edgeLabel;resizable=0;html=1;align=right;verticalAlign=bottom;" parent="RuJHTTD1aHRAg2Q4-gnr-61" connectable="0" vertex="1">
          <mxGeometry x="1" relative="1" as="geometry">
            <mxPoint x="-1" as="offset" />
          </mxGeometry>
        </mxCell>
        <mxCell id="RuJHTTD1aHRAg2Q4-gnr-64" value="are-stored-with" style="text;strokeColor=none;fillColor=none;align=left;verticalAlign=top;spacingLeft=4;spacingRight=4;overflow=hidden;rotatable=0;points=[[0,0.5],[1,0.5]];portConstraint=eastwest;whiteSpace=wrap;html=1;" parent="1" vertex="1">
          <mxGeometry x="-128" y="415" width="110" height="26" as="geometry" />
        </mxCell>
        <mxCell id="RuJHTTD1aHRAg2Q4-gnr-65" value="" style="endArrow=none;html=1;edgeStyle=orthogonalEdgeStyle;rounded=0;exitX=0.25;exitY=0;exitDx=0;exitDy=0;entryX=0.5;entryY=1;entryDx=0;entryDy=0;" parent="1" source="node16" target="node15" edge="1">
          <mxGeometry relative="1" as="geometry">
            <mxPoint x="-100" y="390" as="sourcePoint" />
            <mxPoint x="60" y="390" as="targetPoint" />
          </mxGeometry>
        </mxCell>
        <mxCell id="RuJHTTD1aHRAg2Q4-gnr-66" value="1" style="edgeLabel;resizable=0;html=1;align=left;verticalAlign=bottom;" parent="RuJHTTD1aHRAg2Q4-gnr-65" connectable="0" vertex="1">
          <mxGeometry x="-1" relative="1" as="geometry" />
        </mxCell>
        <mxCell id="RuJHTTD1aHRAg2Q4-gnr-67" value="1..*" style="edgeLabel;resizable=0;html=1;align=right;verticalAlign=bottom;" parent="RuJHTTD1aHRAg2Q4-gnr-65" connectable="0" vertex="1">
          <mxGeometry x="1" relative="1" as="geometry">
            <mxPoint x="-6" y="25" as="offset" />
          </mxGeometry>
        </mxCell>
        <mxCell id="RuJHTTD1aHRAg2Q4-gnr-68" value="are-recovered-with" style="text;strokeColor=none;fillColor=none;align=left;verticalAlign=top;spacingLeft=4;spacingRight=4;overflow=hidden;rotatable=0;points=[[0,0.5],[1,0.5]];portConstraint=eastwest;whiteSpace=wrap;html=1;" parent="1" vertex="1">
          <mxGeometry x="-94" y="470" width="124" height="26" as="geometry" />
        </mxCell>
        <mxCell id="RuJHTTD1aHRAg2Q4-gnr-69" value="" style="endArrow=none;html=1;edgeStyle=orthogonalEdgeStyle;rounded=0;exitX=1;exitY=0.5;exitDx=0;exitDy=0;entryX=0;entryY=0.5;entryDx=0;entryDy=0;" parent="1" source="node15" target="node14" edge="1">
          <mxGeometry relative="1" as="geometry">
            <mxPoint x="123" y="441" as="sourcePoint" />
            <mxPoint x="283" y="441" as="targetPoint" />
          </mxGeometry>
        </mxCell>
        <mxCell id="RuJHTTD1aHRAg2Q4-gnr-70" value="1..*" style="edgeLabel;resizable=0;html=1;align=left;verticalAlign=bottom;" parent="RuJHTTD1aHRAg2Q4-gnr-69" connectable="0" vertex="1">
          <mxGeometry x="-1" relative="1" as="geometry" />
        </mxCell>
        <mxCell id="RuJHTTD1aHRAg2Q4-gnr-71" value="1" style="edgeLabel;resizable=0;html=1;align=right;verticalAlign=bottom;" parent="RuJHTTD1aHRAg2Q4-gnr-69" connectable="0" vertex="1">
          <mxGeometry x="1" relative="1" as="geometry">
            <mxPoint x="-8" as="offset" />
          </mxGeometry>
        </mxCell>
        <mxCell id="RuJHTTD1aHRAg2Q4-gnr-72" value="are-organized-in" style="text;strokeColor=none;fillColor=none;align=left;verticalAlign=top;spacingLeft=4;spacingRight=4;overflow=hidden;rotatable=0;points=[[0,0.5],[1,0.5]];portConstraint=eastwest;whiteSpace=wrap;html=1;" parent="1" vertex="1">
          <mxGeometry x="150" y="415" width="124" height="26" as="geometry" />
        </mxCell>
        <mxCell id="RuJHTTD1aHRAg2Q4-gnr-73" value="" style="endArrow=none;html=1;edgeStyle=orthogonalEdgeStyle;rounded=0;exitX=0.5;exitY=0;exitDx=0;exitDy=0;entryX=0.5;entryY=1;entryDx=0;entryDy=0;" parent="1" source="node6" target="node14" edge="1">
          <mxGeometry relative="1" as="geometry">
            <mxPoint x="190" y="490" as="sourcePoint" />
            <mxPoint x="350" y="490" as="targetPoint" />
          </mxGeometry>
        </mxCell>
        <mxCell id="RuJHTTD1aHRAg2Q4-gnr-74" value="1" style="edgeLabel;resizable=0;html=1;align=left;verticalAlign=bottom;" parent="RuJHTTD1aHRAg2Q4-gnr-73" connectable="0" vertex="1">
          <mxGeometry x="-1" relative="1" as="geometry">
            <mxPoint x="-13" as="offset" />
          </mxGeometry>
        </mxCell>
        <mxCell id="RuJHTTD1aHRAg2Q4-gnr-75" value="1" style="edgeLabel;resizable=0;html=1;align=right;verticalAlign=bottom;" parent="RuJHTTD1aHRAg2Q4-gnr-73" connectable="0" vertex="1">
          <mxGeometry x="1" relative="1" as="geometry">
            <mxPoint x="-3" y="16" as="offset" />
          </mxGeometry>
        </mxCell>
        <mxCell id="RuJHTTD1aHRAg2Q4-gnr-76" value="is-processed-by" style="text;html=1;strokeColor=none;fillColor=none;align=center;verticalAlign=middle;whiteSpace=wrap;rounded=0;rotation=90;" parent="1" vertex="1">
          <mxGeometry x="320" y="510" width="90.5" height="20" as="geometry" />
        </mxCell>
      </root>
    </mxGraphModel>
  </diagram>
</mxfile>
